<svg width="14" height="13" viewBox="0 0 14 13" fill="none" xmlns="http://www.w3.org/2000/svg">
<path fill-rule="evenodd" clip-rule="evenodd" d="M12.7754 1.48377C14.4087 3.02421 14.4081 5.52184 12.7741 7.06165L7.00002 12.5L1.22585 7.06164C-0.408145 5.52183 -0.408686 3.0242 1.22464 1.48376C2.63981 0.0910062 4.46595 0.185446 6.18964 1.71392C6.46301 1.95633 6.73381 2.23481 6.99998 2.54915C7.26615 2.23481 7.53695 1.95633 7.81032 1.71392C9.53402 0.185448 11.3602 0.091011 12.7754 1.48377ZM7.00002 10.9108L11.9673 6.23235C13.1217 5.14448 13.1221 3.40103 11.9681 2.31274L11.9592 2.30428L11.9504 2.29564C11.3708 1.72525 10.7906 1.57446 10.2139 1.67929C9.57838 1.7948 8.76564 2.25746 7.89624 3.28419L6.99998 4.34265L6.10372 3.28419C5.23431 2.25745 4.42158 1.7948 3.7861 1.67929C3.2094 1.57446 2.62919 1.72524 2.04961 2.29564L2.04083 2.30428L2.03186 2.31273C0.878027 3.40095 0.878306 5.14424 2.0325 6.23213C2.03258 6.2322 2.03265 6.23228 2.03273 6.23235L7.00002 10.9108Z" fill="#DD8A08"/>
</svg>
