<svg width="45" height="30" viewBox="0 0 45 30" fill="none" xmlns="http://www.w3.org/2000/svg">
<rect width="30" height="30" rx="2" fill="#F3F3F3"/>
<g clip-path="url(#clip0_141_2617)">
<g clip-path="url(#clip1_141_2617)">
<path d="M7.5 12.75H9.75V21.75H7.5C7.30109 21.75 7.11032 21.671 6.96967 21.5303C6.82902 21.3897 6.75 21.1989 6.75 21V13.5C6.75 13.3011 6.82902 13.1103 6.96967 12.9697C7.11032 12.829 7.30109 12.75 7.5 12.75ZM11.4698 11.7803L16.2697 6.98026C16.3335 6.91628 16.4183 6.87748 16.5084 6.87101C16.5985 6.86453 16.688 6.89081 16.7603 6.94501L17.4 7.42501C17.5777 7.55839 17.7119 7.7414 17.7857 7.95095C17.8595 8.1605 17.8696 8.38722 17.8148 8.60251L16.95 12H21.75C22.1478 12 22.5294 12.158 22.8107 12.4393C23.092 12.7207 23.25 13.1022 23.25 13.5V15.078C23.2502 15.274 23.212 15.4682 23.1375 15.6495L20.8162 21.2858C20.7596 21.4232 20.6634 21.5407 20.5399 21.6233C20.4164 21.706 20.2711 21.7501 20.1225 21.75H12C11.8011 21.75 11.6103 21.671 11.4697 21.5303C11.329 21.3897 11.25 21.1989 11.25 21V12.3105C11.25 12.1116 11.3291 11.9209 11.4698 11.7803Z" fill="#DD8A08"/>
</g>
</g>
<path d="M40.0682 20.1591C39.5909 20.1515 39.1136 20.0606 38.6364 19.8864C38.1591 19.7121 37.7235 19.4186 37.3295 19.0057C36.9356 18.589 36.6193 18.0265 36.3807 17.3182C36.142 16.6061 36.0227 15.7121 36.0227 14.6364C36.0227 13.6061 36.1193 12.6932 36.3125 11.8977C36.5057 11.0985 36.786 10.4261 37.1534 9.88068C37.5208 9.33144 37.964 8.91477 38.483 8.63068C39.0057 8.34659 39.5947 8.20455 40.25 8.20455C40.9015 8.20455 41.4811 8.33523 41.9886 8.59659C42.5 8.85417 42.9167 9.21401 43.2386 9.67614C43.5606 10.1383 43.7689 10.6705 43.8636 11.2727H42.4773C42.3485 10.75 42.0985 10.3163 41.7273 9.97159C41.3561 9.62689 40.8636 9.45455 40.25 9.45455C39.3485 9.45455 38.6383 9.84659 38.1193 10.6307C37.6042 11.4148 37.3447 12.5152 37.3409 13.9318H37.4318C37.6439 13.6098 37.8958 13.3352 38.1875 13.108C38.483 12.8769 38.8087 12.6989 39.1648 12.5739C39.5208 12.4489 39.8977 12.3864 40.2955 12.3864C40.9621 12.3864 41.572 12.553 42.125 12.8864C42.678 13.2159 43.1212 13.6723 43.4545 14.2557C43.7879 14.8352 43.9545 15.5 43.9545 16.25C43.9545 16.9697 43.7936 17.6288 43.4716 18.2273C43.1496 18.822 42.697 19.2955 42.1136 19.6477C41.5341 19.9962 40.8523 20.1667 40.0682 20.1591ZM40.0682 18.9091C40.5455 18.9091 40.9735 18.7898 41.3523 18.5511C41.7348 18.3125 42.036 17.9924 42.2557 17.5909C42.4792 17.1894 42.5909 16.7424 42.5909 16.25C42.5909 15.7689 42.483 15.3314 42.267 14.9375C42.0549 14.5398 41.7614 14.2235 41.3864 13.9886C41.0152 13.7538 40.5909 13.6364 40.1136 13.6364C39.7538 13.6364 39.4186 13.7083 39.108 13.8523C38.7973 13.9924 38.5246 14.1856 38.2898 14.4318C38.0587 14.678 37.8769 14.9602 37.7443 15.2784C37.6117 15.5928 37.5455 15.9242 37.5455 16.2727C37.5455 16.7348 37.6534 17.1667 37.8693 17.5682C38.089 17.9697 38.3883 18.2936 38.767 18.5398C39.1496 18.786 39.5833 18.9091 40.0682 18.9091Z" fill="black"/>
<defs>
<clipPath id="clip0_141_2617">
<rect width="18" height="18" fill="white" transform="translate(6 6)"/>
</clipPath>
<clipPath id="clip1_141_2617">
<rect width="18" height="18" fill="white" transform="translate(6 6)"/>
</clipPath>
</defs>
</svg>
